PathFileType	4	(X/Y/Z)	C:/Users/opensim2020/Desktop/walking_exp_matlab/subject02_walking15_straight_04.trc																																																																																																																												
DataRate	CameraRate	NumFrames	NumMarkers	Units	OrigDataRate	OrigDataStartFrame	OrigNumFrames																																																																																																																								
100	100	4	42	mm	100	1793	152																																																																																																																								
Frame#	Time	LFHD			RFHD			LBHD			RBHD			C7			T10			CLAV			STRN			RBAK			LSHO			LUPA			LELB			LFRM			LWRA			LWRB			LFIN			RSHO			RUPA			RELB			RFRM			RWRA			RWRB			RFIN			LASI			RASI			LPSI			RPSI			LTHI			LKNE			LTIB			LANK			LHEE			LTOE			RTHI			RKNE			RTIB			RANK			RHEE			RTOE			*39			*40			*41		
		X1	Y1	Z1	X2	Y2	Z2	X3	Y3	Z3	X4	Y4	Z4	X5	Y5	Z5	X6	Y6	Z6	X7	Y7	Z7	X8	Y8	Z8	X9	Y9	Z9	X10	Y10	Z10	X11	Y11	Z11	X12	Y12	Z12	X13	Y13	Z13	X14	Y14	Z14	X15	Y15	Z15	X16	Y16	Z16	X17	Y17	Z17	X18	Y18	Z18	X19	Y19	Z19	X20	Y20	Z20	X21	Y21	Z21	X22	Y22	Z22	X23	Y23	Z23	X24	Y24	Z24	X25	Y25	Z25	X26	Y26	Z26	X27	Y27	Z27	X28	Y28	Z28	X29	Y29	Z29	X30	Y30	Z30	X31	Y31	Z31	X32	Y32	Z32	X33	Y33	Z33	X34	Y34	Z34	X35	Y35	Z35	X36	Y36	Z36	X37	Y37	Z37	X38	Y38	Z38	X39	Y39	Z39	X40	Y40	Z40	X41	Y41	Z41	X42	Y42	Z42
																																																																																																																															
115	1.14	462.30429	1714.27112	957.2041	466.03503	1701.06409	1100.03711	336.34549	1631.6731	954.32452	327.88019	1616.42139	1097.14404	291.34125	1487.79382	1030.37903	264.51898	1209.52759	1057.00916	437.36243	1429.56995	1018.80273	504.28479	1265.17212	1039.31335	249.75854	1311.11475	1105.50476	357.09732	1453.36169	851.04248	301.63876	1259.73792	777.64252	257.15411	1131.20532	772.70972	209.00716	1015.4278	747.89355	204.67859	873.01837	752.35187	161.20096	903.07837	732.75391	141.11276	841.05249	721.22766	366.15961	1474.34546	1214.85828	365.69244	1293.2561	1318.86023	423.82782	1164.8175	1369.53064	534.7746	1110.91223	1375.01428	659.40381	1081.55481	1344.96167	640.88403	1035.99219	1373.2395	710.47327	1044.8551	1379.13452	513.52844	966.05762	928.63062	504.44702	941.77496	1179.30322	297.33115	1004.01117	1004.99146	294.4455	998.54712	1123.34204	532.63007	670.69409	864.83331	574.73175	477.22409	901.84039	545.70953	286.83035	896.77435	560.65601	68.85664	930.81018	526.33704	41.9129	985.30408	715.92883	30.67583	911.46381	363.06613	651.0863	1274.06604	318.50943	451.2045	1273.0979	166.07214	343.63809	1286.2926	23.19198	214.48207	1265.51868	-29.55866	207.58815	1205.80322	54.97739	49.47399	1265.67285	358.30807	1776.72705	1046.85474	NaN	NaN	NaN	NaN	NaN	NaN
116	1.15	475.1882	1715.67847	953.53467	479.37177	1703.26587	1096.5741	349.45306	1633.3761	951.55225	341.34668	1618.46008	1094.34375	304.65564	1489.16443	1028.13794	278.03339	1211.32971	1054.07178	450.89627	1431.50537	1016.24658	517.75977	1266.97156	1036.89697	262.82745	1313.67297	1103.52661	370.13922	1455.34082	848.67468	316.68964	1260.927	774.74988	274.26331	1131.67615	768.73706	228.25836	1014.96667	744.26709	227.69873	872.13885	749.81403	183.72562	900.85052	729.21545	165.67549	837.66901	718.4032	379.75607	1475.92566	1212.41821	376.78003	1293.72852	1315.09106	432.7959	1163.89038	1364.0166	542.42633	1107.5614	1370.32886	666.44983	1075.16187	1340.86389	646.64307	1029.8949	1369.04224	716.19849	1037.16223	1375.49695	526.78534	968.40662	924.25299	518.38837	942.37915	1174.13757	311.01556	1005.08813	1001.99536	307.92587	999.64618	1120.1908	545.61987	670.79517	863.37238	582.68683	476.83936	900.40979	548.72406	286.72473	897.38617	560.93646	68.62926	930.93073	526.66827	41.83355	985.34851	715.96326	30.50441	911.6225	384.95963	648.20111	1270.64771	345.91821	448.77112	1271.15112	191.71307	345.41034	1284.66113	44.7493	222.03969	1261.80554	-7.67576	217.60945	1201.55847	71.63499	57.19732	1266.17688	371.32489	1778.61353	1043.23987	NaN	NaN	NaN	NaN	NaN	NaN
117	1.16	488.38147	1717.52502	950.1806	492.76785	1705.78748	1093.33545	363.2919	1634.89172	948.68219	354.8363	1620.71973	1091.63647	318.12692	1491.29065	1026.17017	291.32773	1213.38367	1051.18652	464.14691	1433.62231	1013.88983	531.06128	1268.93896	1034.69421	275.74164	1316.1637	1101.34924	383.12918	1457.54785	846.38654	331.54953	1262.76416	771.6311	291.61325	1132.32544	765.30579	248.66042	1014.07208	741.0799	252.04089	871.48938	747.53296	207.10167	898.80475	725.79852	191.35732	834.57263	715.63525	393.08569	1477.6814	1210.05127	387.85333	1294.46814	1311.35461	441.72552	1163.60059	1359.19067	549.89844	1104.15002	1365.82434	673.00702	1067.98682	1336.83032	651.77307	1023.10352	1364.84912	721.26318	1028.45557	1371.81128	539.70001	971.00189	920.24634	531.80963	943.39429	1169.78625	324.19101	1006.41028	999.05627	320.73294	1001.0285	1116.75403	556.7218	672.17218	861.86932	588.84766	476.3074	898.88696	550.30261	286.5159	898.12323	560.98724	68.69856	931.12579	526.60651	41.8304	985.39111	716.13507	30.44971	911.82953	407.05005	646.32861	1267.3075	373.45502	447.26794	1268.78333	218.12892	347.58948	1281.36731	67.54881	229.3868	1256.87256	15.15148	224.75868	1195.42932	91.34322	64.82761	1266.19714	384.30807	1780.24316	1039.24231	NaN	NaN	NaN	NaN	NaN	NaN
118	1.17	501.36746	1719.47717	947.02759	506.07971	1708.2406	1089.97803	376.04089	1636.58618	946.01587	368.35464	1623.13379	1089.0094	331.34283	1493.76379	1024.03186	304.40366	1215.68103	1048.45764	477.34561	1436.01624	1011.62665	544.00049	1270.99377	1032.56335	288.56122	1318.76855	1098.80225	396.20572	1460.02429	844.13562	347.14682	1264.69397	768.78851	309.4317	1133.26282	761.4433	269.63821	1013.64984	737.17505	277.02463	871.33185	745.21338	232.04015	896.87109	722.57574	218.81729	831.90314	712.91528	406.27817	1479.48071	1207.89709	398.91928	1295.50085	1308.06067	450.73035	1163.53027	1354.45007	557.06464	1100.53772	1361.41028	678.81805	1059.99646	1332.64697	656.25519	1016.06342	1360.77917	725.7337	1018.93311	1367.98486	552.11108	973.66455	916.75403	544.65759	944.7796	1166.36035	336.87708	1008.18317	996.09772	332.95096	1002.70453	1113.16077	567.02765	673.81598	860.07544	593.59912	475.86432	897.20587	551.37689	286.42511	898.38556	561.12793	68.84541	931.12787	526.61865	41.61208	985.61511	716.05231	30.45273	911.87323	428.77649	646.00024	1263.87524	400.99484	447.02661	1265.88879	244.85477	350.46338	1277.31445	91.35068	235.96277	1251.00281	38.95984	230.09659	1189.01416	113.91328	71.65162	1265.40149	397.38037	1782.51465	1035.79382	NaN	NaN	NaN	NaN	NaN	NaN
